<svg width="410" height="411" viewBox="0 0 410 411" fill="none" xmlns="http://www.w3.org/2000/svg">
<circle cx="205" cy="205.236" r="205" fill="url(#paint0_linear)"/>
<path fill-rule="evenodd" clip-rule="evenodd" d="M201.238 325.731C264.149 325.731 315.149 275.515 315.149 213.571C315.149 151.626 264.149 101.41 201.238 101.41C138.327 101.41 87.3277 151.626 87.3277 213.571C87.3277 237.681 95.0537 260.014 108.201 278.301L74.3989 325.309H191.29C194.568 325.588 197.886 325.731 201.238 325.731Z" fill="white"/>
<path fill-rule="evenodd" clip-rule="evenodd" d="M230.386 309.062C167.475 309.062 116.475 258.846 116.475 196.901C116.475 134.957 167.475 84.7409 230.386 84.7409C293.297 84.7409 344.297 134.957 344.297 196.901C344.297 221.011 336.571 243.344 323.424 261.631L357.226 308.64H240.334C237.056 308.919 233.738 309.062 230.386 309.062Z" fill="white" fill-opacity="0.51"/>
<g filter="url(#filter0_d)">
<ellipse cx="194.774" cy="213.571" rx="74.0428" ry="32.1442" transform="rotate(-35 194.774 213.571)" stroke="url(#paint1_linear)" stroke-width="3"/>
</g>
<g filter="url(#filter1_d)">
<ellipse cx="194.774" cy="213.571" rx="50" ry="70" transform="rotate(-42.0017 194.774 213.571)" stroke="url(#paint2_linear)" stroke-width="3"/>
</g>
<g filter="url(#filter2_d)">
<path fill-rule="evenodd" clip-rule="evenodd" d="M134.76 229.2C132.446 233.749 130.894 238.137 130.23 242.212C129.324 247.774 130.06 252.855 132.892 256.9C135.725 260.946 140.248 263.375 145.784 264.425C151.311 265.474 157.946 265.174 165.223 263.689C179.78 260.719 197.195 252.947 214.071 241.13C215.212 240.331 216.336 239.524 217.443 238.709L213.022 238.2C212.799 238.358 212.575 238.516 212.35 238.673C195.729 250.311 178.69 257.88 164.623 260.75C157.587 262.186 151.367 262.431 146.344 261.478C141.33 260.526 137.608 258.405 135.35 255.179C133.091 251.954 132.371 247.731 133.191 242.694C133.841 238.706 135.45 234.272 137.95 229.567L134.76 229.2ZM220.858 232.311C233.402 222.298 243.246 211.436 249.42 201.375C253.175 195.254 255.533 189.493 256.355 184.447C257.176 179.41 256.456 175.187 254.197 171.962C251.938 168.736 248.217 166.615 243.203 165.663C239.052 164.876 234.084 164.906 228.513 165.751L228.868 162.668C234.368 161.9 239.409 161.89 243.762 162.716C249.299 163.767 253.822 166.196 256.654 170.241C259.487 174.286 260.223 179.367 259.316 184.929C258.412 190.482 255.86 196.614 251.977 202.944C245.202 213.985 234.255 225.818 220.376 236.501L220.858 232.311Z" fill="url(#paint3_linear)"/>
</g>
<defs>
<filter id="filter0_d" x="105.595" y="135.682" width="180.357" height="159.779" filterUnits="userSpaceOnUse" color-interpolation-filters="sRGB">
<feFlood flood-opacity="0" result="BackgroundImageFix"/>
<feColorMatrix in="SourceAlpha" type="matrix" values="0 0 0 0 0 0 0 0 0 0 0 0 0 0 0 0 0 0 127 0"/>
<feMorphology radius="2" operator="dilate" in="SourceAlpha" result="effect1_dropShadow"/>
<feOffset dx="1" dy="2"/>
<feGaussianBlur stdDeviation="3.5"/>
<feColorMatrix type="matrix" values="0 0 0 0 0.356863 0 0 0 0 0.614118 0 0 0 0 1 0 0 0 1 0"/>
<feBlend mode="normal" in2="BackgroundImageFix" result="effect1_dropShadow"/>
<feBlend mode="normal" in="SourceGraphic" in2="effect1_dropShadow" result="shape"/>
</filter>
<filter id="filter1_d" x="100.658" y="118.976" width="190.231" height="193.19" filterUnits="userSpaceOnUse" color-interpolation-filters="sRGB">
<feFlood flood-opacity="0" result="BackgroundImageFix"/>
<feColorMatrix in="SourceAlpha" type="matrix" values="0 0 0 0 0 0 0 0 0 0 0 0 0 0 0 0 0 0 127 0"/>
<feMorphology radius="2" operator="dilate" in="SourceAlpha" result="effect1_dropShadow"/>
<feOffset dx="1" dy="2"/>
<feGaussianBlur stdDeviation="3.5"/>
<feColorMatrix type="matrix" values="0 0 0 0 0.356863 0 0 0 0 0.614118 0 0 0 0 1 0 0 0 1 0"/>
<feBlend mode="normal" in2="BackgroundImageFix" result="effect1_dropShadow"/>
<feBlend mode="normal" in="SourceGraphic" in2="effect1_dropShadow" result="shape"/>
</filter>
<filter id="filter2_d" x="121.864" y="155.094" width="147.818" height="120.953" filterUnits="userSpaceOnUse" color-interpolation-filters="sRGB">
<feFlood flood-opacity="0" result="BackgroundImageFix"/>
<feColorMatrix in="SourceAlpha" type="matrix" values="0 0 0 0 0 0 0 0 0 0 0 0 0 0 0 0 0 0 127 0"/>
<feMorphology radius="2" operator="dilate" in="SourceAlpha" result="effect1_dropShadow"/>
<feOffset dx="1" dy="2"/>
<feGaussianBlur stdDeviation="3.5"/>
<feColorMatrix type="matrix" values="0 0 0 0 0.356863 0 0 0 0 0.614118 0 0 0 0 1 0 0 0 1 0"/>
<feBlend mode="normal" in2="BackgroundImageFix" result="effect1_dropShadow"/>
<feBlend mode="normal" in="SourceGraphic" in2="effect1_dropShadow" result="shape"/>
</filter>
<linearGradient id="paint0_linear" x1="1.56299e-05" y1="-455.443" x2="799.416" y2="-162.025" gradientUnits="userSpaceOnUse">
<stop stop-color="#2AF6EA"/>
<stop offset="1" stop-color="#2AADF6"/>
</linearGradient>
<linearGradient id="paint1_linear" x1="120.731" y1="109.976" x2="311.793" y2="271.512" gradientUnits="userSpaceOnUse">
<stop stop-color="#2AF6EA"/>
<stop offset="1" stop-color="#2AADF6"/>
</linearGradient>
<linearGradient id="paint2_linear" x1="144.774" y1="-12.0271" x2="351.792" y2="42.2471" gradientUnits="userSpaceOnUse">
<stop stop-color="#2AF6EA"/>
<stop offset="1" stop-color="#2AADF6"/>
</linearGradient>
<linearGradient id="paint3_linear" x1="129.864" y1="47.6712" x2="366.414" y2="157.151" gradientUnits="userSpaceOnUse">
<stop stop-color="#2AF6EA"/>
<stop offset="1" stop-color="#2AADF6"/>
</linearGradient>
</defs>
</svg>
